<svg width="24px" height="24px" viewBox="0 0 19 20" version="1.1" xmlns="http://www.w3.org/2000/svg"
    xmlns:xlink="http://www.w3.org/1999/xlink" class="css-9vv2n3 eqj9hac0">
    <g id="Laguage-selector-Tests" stroke="none" stroke-width="1" fill="none" fill-rule="evenodd">
        <g id="Contact-sales_update-mock" transform="translate(-1082.000000, -552.000000)">
            <g id="Nav-Copy-3" transform="translate(60.000000, 534.000000)">
                <polygon id="Nav-bg" fill="none" points="0 0 1440 0 1440 56 0 56"></polygon>
                <g id="globe" transform="translate(1022.000000, 18.500000)" fill="#646F79" fill-rule="nonzero">
                    <path
                        d="M9.5,0 C4.275,0 0,4.275 0,9.5 C0,14.725 4.275,19 9.5,19 C14.725,19 19,14.725 19,9.5 C19,4.275 14.725,0 9.5,0 Z M16.98125,5.9375 L13.359375,5.9375 C13.0625,4.096875 12.528125,2.553125 11.815625,1.54375 C14.13125,2.196875 15.971875,3.8 16.98125,5.9375 Z M12.46875,9.5 C12.46875,10.33125 12.409375,11.103125 12.35,11.875 L6.65,11.875 C6.590625,11.103125 6.53125,10.33125 6.53125,9.5 C6.53125,8.66875 6.590625,7.896875 6.65,7.125 L12.35,7.125 C12.409375,7.896875 12.46875,8.66875 12.46875,9.5 Z M9.5,17.8125 C8.490625,17.8125 7.3625,15.971875 6.828125,13.0625 L12.171875,13.0625 C11.6375,15.971875 10.509375,17.8125 9.5,17.8125 Z M6.828125,5.9375 C7.3625,3.028125 8.490625,1.1875 9.5,1.1875 C10.509375,1.1875 11.6375,3.028125 12.171875,5.9375 L6.828125,5.9375 Z M7.184375,1.54375 C6.471875,2.553125 5.9375,4.096875 5.640625,5.9375 L2.01875,5.9375 C3.028125,3.8 4.86875,2.196875 7.184375,1.54375 Z M1.54375,7.125 L5.4625,7.125 C5.403125,7.896875 5.34375,8.66875 5.34375,9.5 C5.34375,10.33125 5.403125,11.103125 5.4625,11.875 L1.54375,11.875 C1.30625,11.103125 1.1875,10.33125 1.1875,9.5 C1.1875,8.66875 1.30625,7.896875 1.54375,7.125 Z M2.01875,13.0625 L5.640625,13.0625 C5.9375,14.903125 6.471875,16.446875 7.184375,17.45625 C4.86875,16.803125 3.028125,15.2 2.01875,13.0625 Z M11.815625,17.45625 C12.528125,16.3875 13.0625,14.903125 13.359375,13.0625 L16.98125,13.0625 C15.971875,15.2 14.13125,16.803125 11.815625,17.45625 Z M17.45625,11.875 L13.5375,11.875 C13.596875,11.103125 13.65625,10.33125 13.65625,9.5 C13.65625,8.66875 13.596875,7.896875 13.5375,7.125 L17.45625,7.125 C17.69375,7.896875 17.8125,8.66875 17.8125,9.5 C17.8125,10.33125 17.69375,11.103125 17.45625,11.875 Z"
                        id="Shape"></path>
                </g>
            </g>
        </g>
    </g>
</svg>